<?xml version="1.0" encoding="UTF-8"?>
<svg id="Capa_1" data-name="Capa 1" xmlns="http://www.w3.org/2000/svg" viewBox="0 0 300.51 266.7">
  <defs>
    <style>
      .cls-1 {
        fill: #1d1d1b;
      }
    </style>
  </defs>
  <path class="cls-1" d="m93.86,0c18.74,11,22.37,34.37,17.88,54.09-1.43,6.64-4.6,12.87-7.15,19.15l-1.84-.78c2.67-6.13,5.96-12.2,7.53-18.7,4.92-19.39,1.84-42.42-16.42-53.76h0Z"/>
  <path class="cls-1" d="m266.57,18.24c-2.18.95-6.49,6.96-6.57,10.79-.03,1.26-.25,4.66,2.33,6.98,2.4,2.17,4.81,1.65,7.11.61,4.17-1.89,7.38-13.11,5.96-16.27-2.16-3.22-5.98-2.89-8.82-2.12Z"/>
  <path class="cls-1" d="m241.16,74.47c5.35,3.83,11.78,4.52,12.68,7.9.61,2.3-.89,5.39-2.89,5.97-4.16,1.2-11.67-9.74-13.26-12.33-4.37-7.12-6.13-14.02-5.59-14.25.57-.25,2.02,7.68,9.05,12.71Z"/>
  <path class="cls-1" d="m291.63,202.29c-23.65,4.24-262.59,0-262.59,0,0,0-.71.18-1.41-1.59s-1.76-6,1.06-5.47,18.49,4.86,36,5.29c82.05,1.61,207,2.12,226.94,1.76Z"/>
  <path class="cls-1" d="m8.04,196.65c-1.17-.19-.76-4.13,2.15-4.13s9.49-.37,9.49-.37c0,0,2.12,0,3.18-2.38s3.44,0,3.44,0c0,0-1.06,2.91,1.85,4.5s-1.85,3.71-1.85,3.71c0,0-1.21.14-3.7-.44-.49-.11-.06-.52-1.83-2.06-1.07-.85-10.73,1.5-12.73,1.18Z"/>
  <path class="cls-1" d="m295.12,198.9s-7.01.26-5.96-2.25c1.06-2.51,3.96-3.46,6.04-3.54s3.17.27,4.01.63c2.38,1.06.99,2.63-.47,2.76s-2.84.68-3.64,2.4Z"/>
  <path class="cls-1" d="m51.27,200.78c26.44-.48,54.68,1.06,81.16,1.46-9.01,2.89-24.97,4.42-28.53,14.45-1.15.04-2.16.59-3.4.82-1.17.25-2.57,0-3.6-.65-1.79-1.05-2.29-2.95-3.71-3.86-2.46-1.3-6.2.7-8.03,2.67-1.09,1.18-1.83,2.66-2.55,4.3-.48,1-.73,1.85-1.67,2.71-1.32,1.15-3.09.31-3.77-.95-1.33-2.3-2.49-4.52-4.93-5.69-3.38-1.68-6.57-1.78-6.75,2.83-.29,4.48-.23,8.92.56,13.36.87,7.2,1.37,14.51.46,21.74-.57,3.71-1.46,7.57-4.28,10.38-3.03,2.92-7.9,3-11.44.91-6.54-4.27-5.05-14.65-5.1-21.41.52-7.23,2.42-14.23,2.91-21.48.37-5.12.88-10.98,1.73-16.14.25-1.79.45-3.69.92-5.45h0Z"/>
  <path class="cls-1" d="m83.73,4.11C77.03,0,53.57,1.6,50.4,2.46c-20.5,5.56-26.85,21.86-30.61,28.87-4.7,8.73-9.19,31.23-6.8,40.14,6.88,18.71,27.02,24.71,31.29,25.85,21.1,5.62,50.49-2.2,61.9-27.21,9.66-22.6-1.57-56.01-22.45-65.99Zm-23.17,21.25c-2.03,7.29-8.4,12.47-14.94,14-2.27.53-8.29,1.95-11.83-1.56-3.66-3.63-2.09-9.98-1.56-12.14,1.89-7.62,8.41-13.52,15.56-15.25,2.47-.6,7.26-1.75,10.58.93,4.82,3.89,2.56,12.63,2.18,14Z"/>
  <path class="cls-1" d="m5.35,45.92c1.99-7.83,4.56-15.18,6.75-21,.05-.11-.13-.2-.18-.09-2.83,5.4-5.12,11.08-7.07,16.87-.51,1.58-1.01,3.23-1.48,4.93.69-.24,1.35-.48,1.99-.7Z"/>
  <g>
    <path class="cls-1" d="m80.44,92.17c-2.96.73-5.86,1.62-8.81,2.33,0,0-4.4,1.13-4.4,1.13-7.3,1.77-14.81,3.33-22.23,4.3-5.3.75-19.38.79-20.84.57.9.2,1.8.38,2.71.53,18.26,2.95,36.73-2.04,53.64-8.67.12-.04.05-.23-.06-.19Z"/>
    <path class="cls-1" d="m18.6,98.54c-.6-.34-1.15-.73-1.68-1.14-2.2-1.08-4.27-2.45-6.14-4.2C2.51,85.32,1.11,72.87,2.64,60.06c-.61-.2-1.28-.43-1.98-.66-1.76,12.78-.42,26.12,9.39,34.62,3.27,2.74,7.12,4.53,11.14,5.72-.88-.32-1.74-.71-2.59-1.2Z"/>
  </g>
  <path class="cls-1" d="m234.73,114.1c-1.37-2.12-4.1-2.62-5.29-2.82-65.13-11.1-96.35,4.24-96.35,4.24-13.18,6.47-16.98,11.52-17.29,16.24-.36,5.34,3.7,10.99,7.41,14.12,3.66,3.08,7.42,4.09,9.18,4.59,14.66,4.19,17.37,9.81,29.65,14.12,5.2,1.82,19.43,6.81,34.59,2.12,15.39-4.76,22.12-16.52,35.29-39.53,2.07-3.61,5.13-9.49,2.82-13.06Zm-79.59,11.82c-.45,3.38-1.05,7.9-4.76,10.59-3.8,2.74-8.32,1.72-12.44.79-3.77-.85-4.69-2.08-5.03-2.65-.23-.39-1.04-1.88,0-5.56.67-2.38,2.22-7.87,7.68-10.85,4.15-2.27,11.02-3.35,13.76,0,1.56,1.9,1.21,4.52.79,7.68Zm68.56-3.18c-4.2,2.1-8.48,1.38-11.91.79-4.08-.69-3.79-1.47-9-2.65-5.87-1.33-9.5-2.15-12.44-.26-2.52,1.62-2.5,3.92-5.03,4.5-1.98.45-4.94.02-5.29-1.59-.7-3.2.06-9.04.28-12.58,1.18-2.14,10.6-2.6,34.93.13,8.82,1.14,13.95,1.88,14.56,4.5.59,2.53-3.28,5.74-6.09,7.15Z"/>
</svg>